<?xml version="1.0" encoding="UTF-8"?><svg id="Capa_1" xmlns="http://www.w3.org/2000/svg" viewBox="0 0 1080 1080"><defs><style>.cls-1{fill:none;stroke:#000000;stroke-linecap:round;stroke-linejoin:round;stroke-width:29.11px;}</style></defs><path class="cls-1" d="m251.12,305.37c0-84.04,19.91-163.39,55.11-233.77C134.49,157.49,16.5,334.92,16.5,540c0,289.12,234.38,523.5,523.5,523.5,205.08,0,382.51-117.99,468.39-289.74-70.38,35.19-149.73,55.11-233.77,55.11-289.12,0-523.5-234.38-523.5-523.5Z"/><path class="cls-1" d="m540,16.5c-84.04,0-163.39,19.92-233.77,55.11-35.19,70.38-55.11,149.73-55.11,233.77,0,289.12,234.38,523.5,523.5,523.5,84.04,0,163.39-19.92,233.77-55.11,35.19-70.38,55.11-149.73,55.11-233.77,0-289.12-234.38-523.5-523.5-523.5Z"/></svg>