<?xml version="1.0" encoding="utf-8"?>
<!-- Generator: Adobe Illustrator 26.3.1, SVG Export Plug-In . SVG Version: 6.00 Build 0)  -->
<svg version="1.1" xmlns="http://www.w3.org/2000/svg" xmlns:xlink="http://www.w3.org/1999/xlink" x="0px" y="0px"
	 viewBox="0 0 143.89 143.89" style="enable-background:new 0 0 143.89 143.89;" xml:space="preserve">
<style type="text/css">
	.st0{fill:none;stroke:#1D1D1B;stroke-width:4;stroke-miterlimit:10;}
	.st1{fill:#1D1D1B;}
	.st2{fill:none;stroke:#1D1D1B;stroke-width:3.8869;stroke-linecap:round;stroke-linejoin:round;stroke-miterlimit:10;}
	.st3{fill:none;stroke:#1D1D1B;stroke-width:4.6866;stroke-miterlimit:10;}
	.st4{fill:none;stroke:#1D1D1B;stroke-width:3.9032;stroke-miterlimit:10;}
	.st5{fill:none;stroke:#1D1D1B;stroke-width:4;stroke-linecap:round;stroke-miterlimit:10;}
	.st6{fill:none;stroke:#1D1D1B;stroke-width:3.6387;stroke-miterlimit:10;}
	.st7{fill:none;stroke:#1D1D1B;stroke-width:3.4693;stroke-miterlimit:10;}
	.st8{fill:none;stroke:#1D1D1B;stroke-width:3;stroke-linecap:round;stroke-miterlimit:10;}
	.st9{fill:none;stroke:#1D1D1B;stroke-width:3.4693;stroke-linejoin:round;stroke-miterlimit:10;}
	.st10{fill:none;stroke:#AA2D29;stroke-width:4;stroke-miterlimit:10;}
	.st11{fill:none;stroke:#1D1D1B;stroke-width:3.1111;stroke-miterlimit:10;}
	.st12{fill:none;stroke:#1D1D1B;stroke-width:4.0677;stroke-miterlimit:10;}
	.st13{fill:none;stroke:#1D1D1B;stroke-width:4.0677;stroke-linecap:round;stroke-linejoin:bevel;stroke-miterlimit:10;}
	.st14{fill:none;stroke:#1D1D1B;stroke-width:3;stroke-linecap:square;stroke-miterlimit:10;}
	.st15{fill:none;stroke:#1D1D1B;stroke-width:3.5;stroke-linecap:round;stroke-miterlimit:10;}
	.st16{fill:none;}
	.st17{fill:none;stroke:#003764;stroke-width:4;stroke-miterlimit:10;}
	.st18{fill:none;stroke:#C6AD9B;stroke-width:4;stroke-miterlimit:10;}
	.st19{display:none;}
	.st20{display:inline;}
	.st21{fill:none;stroke:#BE1622;stroke-width:0.5;stroke-miterlimit:10;}
	.st22{fill:none;stroke:#C14729;stroke-width:4;stroke-miterlimit:10;}
	.st23{fill:#C14729;}
	.st24{fill:none;stroke:#004987;stroke-width:3.8869;stroke-linecap:round;stroke-linejoin:round;stroke-miterlimit:10;}
	.st25{fill:#C56683;}
	.st26{fill:#6C3175;}
	.st27{fill:#F4B223;}
	.st28{fill:none;stroke:#F4B223;stroke-width:4;stroke-linecap:round;stroke-miterlimit:10;}
	.st29{fill:none;stroke:#2A7050;stroke-width:3.4693;stroke-miterlimit:10;}
	.st30{fill:none;stroke:#2A7050;stroke-width:3.4693;stroke-linejoin:round;stroke-miterlimit:10;}
</style>
<g id="GUIAS">
</g>
<g id="Capa_1">
	<g>
		<path class="st2" d="M33.37,40.61c0-11.22,2.66-21.82,7.36-31.22C17.79,20.86,2.03,44.56,2.03,71.94
			c0,38.61,31.3,69.91,69.91,69.91c27.39,0,51.08-15.76,62.55-38.69c-9.4,4.7-19.99,7.36-31.22,7.36
			C64.67,110.52,33.37,79.22,33.37,40.61z"/>
		<path class="st2" d="M71.94,2.03c-11.22,0-21.82,2.66-31.22,7.36c-4.7,9.4-7.36,19.99-7.36,31.22c0,38.61,31.3,69.91,69.91,69.91
			c11.22,0,21.82-2.66,31.22-7.36c4.7-9.4,7.36-19.99,7.36-31.22C141.85,33.33,110.55,2.03,71.94,2.03z"/>
	</g>
</g>
<g id="GRID1" class="st19">
	<g class="st20">
		<rect x="0" class="st21" width="143.89" height="143.89"/>
		<line class="st21" x1="0" y1="127.9" x2="143.89" y2="127.9"/>
		<line class="st21" x1="0" y1="111.91" x2="143.89" y2="111.91"/>
		<line class="st21" x1="0" y1="95.92" x2="143.89" y2="95.92"/>
		<line class="st21" x1="0" y1="79.94" x2="143.89" y2="79.94"/>
		<line class="st21" x1="0" y1="63.95" x2="143.89" y2="63.95"/>
		<line class="st21" x1="0" y1="47.96" x2="143.89" y2="47.96"/>
		<line class="st21" x1="0" y1="31.97" x2="143.89" y2="31.97"/>
		<line class="st21" x1="0" y1="15.99" x2="143.89" y2="15.99"/>
		<line class="st21" x1="127.9" y1="0" x2="127.9" y2="143.89"/>
		<line class="st21" x1="111.91" y1="0" x2="111.91" y2="143.89"/>
		<line class="st21" x1="95.92" y1="0" x2="95.92" y2="143.89"/>
		<line class="st21" x1="79.94" y1="0" x2="79.94" y2="143.89"/>
		<line class="st21" x1="63.95" y1="0" x2="63.95" y2="143.89"/>
		<line class="st21" x1="47.96" y1="0" x2="47.96" y2="143.89"/>
		<line class="st21" x1="31.97" y1="0" x2="31.97" y2="143.89"/>
		<line class="st21" x1="15.99" y1="0" x2="15.99" y2="143.89"/>
	</g>
	<g class="st20">
		<line class="st21" x1="0" y1="7.99" x2="143.89" y2="7.99"/>
		<line class="st21" x1="0" y1="23.98" x2="143.89" y2="23.98"/>
		<line class="st21" x1="0" y1="39.97" x2="143.89" y2="39.97"/>
		<line class="st21" x1="0" y1="55.96" x2="143.89" y2="55.96"/>
		<line class="st21" x1="0" y1="71.94" x2="143.89" y2="71.94"/>
		<line class="st21" x1="0" y1="87.93" x2="143.89" y2="87.93"/>
		<line class="st21" x1="0" y1="103.92" x2="143.89" y2="103.92"/>
		<line class="st21" x1="0" y1="119.91" x2="143.89" y2="119.91"/>
		<line class="st21" x1="0" y1="135.89" x2="143.89" y2="135.89"/>
		<line class="st21" x1="135.88" y1="0" x2="135.88" y2="143.89"/>
		<line class="st21" x1="119.91" y1="0" x2="119.91" y2="143.89"/>
		<line class="st21" x1="103.93" y1="0" x2="103.93" y2="143.89"/>
		<line class="st21" x1="87.96" y1="0" x2="87.96" y2="143.89"/>
		<line class="st21" x1="71.99" y1="0" x2="71.99" y2="143.89"/>
		<line class="st21" x1="56.02" y1="0" x2="56.02" y2="143.89"/>
		<line class="st21" x1="40.05" y1="0" x2="40.05" y2="143.89"/>
		<line class="st21" x1="24.08" y1="0" x2="24.08" y2="143.89"/>
		<line class="st21" x1="8.1" y1="0" x2="8.1" y2="143.89"/>
	</g>
</g>
<g id="GRID2" class="st19">
</g>
<g id="Capa_5">
</g>
</svg>
