<?xml version="1.0" encoding="utf-8"?>
<!-- Generator: Adobe Illustrator 26.3.1, SVG Export Plug-In . SVG Version: 6.00 Build 0)  -->
<svg version="1.1" xmlns="http://www.w3.org/2000/svg" xmlns:xlink="http://www.w3.org/1999/xlink" x="0px" y="0px"
	 viewBox="0 0 143.89 143.89" style="enable-background:new 0 0 143.89 143.89;" xml:space="preserve">
<style type="text/css">
	.st0{fill:none;stroke:#FABDCC;stroke-width:4;stroke-miterlimit:10;}
	.st1{fill:#FABDCC;}
	.st2{fill:none;stroke:#FABDCC;stroke-width:3.8869;stroke-linecap:round;stroke-linejoin:round;stroke-miterlimit:10;}
	.st3{fill:none;stroke:#FABDCC;stroke-width:4.6866;stroke-miterlimit:10;}
	.st4{fill:none;stroke:#FABDCC;stroke-width:3.9032;stroke-miterlimit:10;}
	.st5{fill:none;stroke:#FABDCC;stroke-width:4;stroke-linecap:round;stroke-miterlimit:10;}
	.st6{fill:none;stroke:#FABDCC;stroke-width:3.6387;stroke-miterlimit:10;}
	.st7{fill:none;stroke:#FABDCC;stroke-width:3.4693;stroke-miterlimit:10;}
	.st8{fill:none;stroke:#FABDCC;stroke-width:3;stroke-linecap:round;stroke-miterlimit:10;}
	.st9{fill:none;stroke:#FABDCC;stroke-width:3.4693;stroke-linejoin:round;stroke-miterlimit:10;}
	.st10{fill:none;stroke:#AA2D29;stroke-width:4;stroke-miterlimit:10;}
	.st11{fill:none;stroke:#FABDCC;stroke-width:3.1111;stroke-miterlimit:10;}
	.st12{fill:none;stroke:#FABDCC;stroke-width:4.0677;stroke-miterlimit:10;}
	.st13{fill:none;stroke:#FABDCC;stroke-width:4.0677;stroke-linecap:round;stroke-linejoin:bevel;stroke-miterlimit:10;}
	.st14{fill:none;stroke:#FABDCC;stroke-width:3;stroke-linecap:square;stroke-miterlimit:10;}
	.st15{fill:none;stroke:#FABDCC;stroke-width:3.5;stroke-linecap:round;stroke-miterlimit:10;}
	.st16{fill:none;}
	.st17{fill:none;stroke:#003764;stroke-width:4;stroke-miterlimit:10;}
	.st18{fill:none;stroke:#C6AD9B;stroke-width:4;stroke-miterlimit:10;}
	.st19{display:none;}
	.st20{display:inline;}
	.st21{fill:none;stroke:#BE1622;stroke-width:0.5;stroke-miterlimit:10;}
	.st22{fill:none;stroke:#C14729;stroke-width:4;stroke-miterlimit:10;}
	.st23{fill:#C14729;}
	.st24{fill:none;stroke:#004987;stroke-width:3.8869;stroke-linecap:round;stroke-linejoin:round;stroke-miterlimit:10;}
	.st25{fill:#C56683;}
	.st26{fill:#6C3175;}
	.st27{fill:#F4B223;}
	.st28{fill:none;stroke:#F4B223;stroke-width:4;stroke-linecap:round;stroke-miterlimit:10;}
	.st29{fill:none;stroke:#2A7050;stroke-width:3.4693;stroke-miterlimit:10;}
	.st30{fill:none;stroke:#2A7050;stroke-width:3.4693;stroke-linejoin:round;stroke-miterlimit:10;}
</style>
<g id="GUIAS">
</g>
<g id="Capa_1">
	<g>
		<g>
			<path class="st1" d="M67.7,76.03c-0.56,6.15-2.39,18.34-8.45,30.34c-10.66,21.13-29.18,32.36-55.09,33.44
				c0.64-8.86,3.79-30.55,19.01-46.04C33.99,82.76,48.95,76.8,67.7,76.03 M71.94,71.94C-1.43,71.94,0,143.89,0,143.89
				C71.94,143.89,71.94,71.94,71.94,71.94L71.94,71.94z"/>
		</g>
	</g>
	<g>
		<g>
			<path class="st1" d="M76.03,76.18c6.15,0.56,18.34,2.39,30.34,8.45c21.13,10.66,32.36,29.19,33.44,55.1
				c-6.36-0.45-19.43-2.19-32.03-8.87C87.74,120.25,77.07,101.87,76.03,76.18 M71.94,71.94c0,70.62,66.66,71.94,71.65,71.94
				c0.19,0,0.29,0,0.29,0C143.89,71.94,71.94,71.94,71.94,71.94L71.94,71.94z"/>
		</g>
	</g>
	<g>
		<g>
			<path class="st1" d="M139.72,4.09c-0.64,8.86-3.79,30.55-19.01,46.04c-10.82,11.01-25.78,16.96-44.53,17.73
				c0.56-6.15,2.39-18.34,8.45-30.34C95.3,16.39,113.82,5.16,139.72,4.09 M143.88,0C71.94,0,71.94,71.94,71.94,71.94
				C145.31,71.94,143.88,0,143.88,0L143.88,0z"/>
		</g>
	</g>
	<g>
		<g>
			<path class="st1" d="M4.08,4.15c6.36,0.45,19.43,2.19,32.03,8.87c20.03,10.61,30.7,28.99,31.74,54.68
				c-6.15-0.56-18.34-2.39-30.34-8.45C16.39,48.59,5.15,30.06,4.08,4.15 M0.29,0C0.1,0,0,0,0,0c0,71.94,71.94,71.94,71.94,71.94
				C71.94,1.32,5.28,0,0.29,0L0.29,0z"/>
		</g>
	</g>
</g>
<g id="GRID1" class="st19">
	<g class="st20">
		<rect x="0" class="st21" width="143.89" height="143.89"/>
		<line class="st21" x1="0" y1="127.9" x2="143.89" y2="127.9"/>
		<line class="st21" x1="0" y1="111.91" x2="143.89" y2="111.91"/>
		<line class="st21" x1="0" y1="95.92" x2="143.89" y2="95.92"/>
		<line class="st21" x1="0" y1="79.94" x2="143.89" y2="79.94"/>
		<line class="st21" x1="0" y1="63.95" x2="143.89" y2="63.95"/>
		<line class="st21" x1="0" y1="47.96" x2="143.89" y2="47.96"/>
		<line class="st21" x1="0" y1="31.97" x2="143.89" y2="31.97"/>
		<line class="st21" x1="0" y1="15.99" x2="143.89" y2="15.99"/>
		<line class="st21" x1="127.9" y1="0" x2="127.9" y2="143.89"/>
		<line class="st21" x1="111.91" y1="0" x2="111.91" y2="143.89"/>
		<line class="st21" x1="95.92" y1="0" x2="95.92" y2="143.89"/>
		<line class="st21" x1="79.94" y1="0" x2="79.94" y2="143.89"/>
		<line class="st21" x1="63.95" y1="0" x2="63.95" y2="143.89"/>
		<line class="st21" x1="47.96" y1="0" x2="47.96" y2="143.89"/>
		<line class="st21" x1="31.97" y1="0" x2="31.97" y2="143.89"/>
		<line class="st21" x1="15.99" y1="0" x2="15.99" y2="143.89"/>
	</g>
	<g class="st20">
		<line class="st21" x1="0" y1="7.99" x2="143.89" y2="7.99"/>
		<line class="st21" x1="0" y1="23.98" x2="143.89" y2="23.98"/>
		<line class="st21" x1="0" y1="39.97" x2="143.89" y2="39.97"/>
		<line class="st21" x1="0" y1="55.96" x2="143.89" y2="55.96"/>
		<line class="st21" x1="0" y1="71.94" x2="143.89" y2="71.94"/>
		<line class="st21" x1="0" y1="87.93" x2="143.89" y2="87.93"/>
		<line class="st21" x1="0" y1="103.92" x2="143.89" y2="103.92"/>
		<line class="st21" x1="0" y1="119.91" x2="143.89" y2="119.91"/>
		<line class="st21" x1="0" y1="135.89" x2="143.89" y2="135.89"/>
		<line class="st21" x1="135.88" y1="0" x2="135.88" y2="143.89"/>
		<line class="st21" x1="119.91" y1="0" x2="119.91" y2="143.89"/>
		<line class="st21" x1="103.93" y1="0" x2="103.93" y2="143.89"/>
		<line class="st21" x1="87.96" y1="0" x2="87.96" y2="143.89"/>
		<line class="st21" x1="71.99" y1="0" x2="71.99" y2="143.89"/>
		<line class="st21" x1="56.02" y1="0" x2="56.02" y2="143.89"/>
		<line class="st21" x1="40.05" y1="0" x2="40.05" y2="143.89"/>
		<line class="st21" x1="24.08" y1="0" x2="24.08" y2="143.89"/>
		<line class="st21" x1="8.1" y1="0" x2="8.1" y2="143.89"/>
	</g>
</g>
<g id="GRID2" class="st19">
</g>
<g id="Capa_5">
</g>
</svg>
