<?xml version="1.0" encoding="UTF-8"?><svg id="Capa_1" xmlns="http://www.w3.org/2000/svg" viewBox="0 0 1080 1080"><defs><style>.cls-1{fill:#000000;}</style></defs><path class="cls-1" d="m508.29,570.6c-4.08,45.62-17.6,135.73-62.42,225.37-36.74,73.48-87.13,131.91-149.76,173.66-37.22,24.81-79.35,44.04-125.25,57.15-42.35,12.1-88.82,19.26-138.49,21.35,1.69-23.98,5.79-60.47,15.71-102.56,10.26-43.53,24.66-84.5,42.8-121.77,22.41-46.04,50.64-86.56,83.91-120.41,40.15-40.85,88.44-72.76,143.52-94.84,55.7-22.32,119.48-35.06,189.97-37.97m31.71-30.6C-9.41,540,1.27,1078.74,1.27,1078.74c538.74,0,538.74-538.74,538.74-538.74h0Z"/><path class="cls-1" d="m570.62,571.71c13.46,1.2,30.77,3.21,50.71,6.6,44.05,7.48,110.42,23.39,176.46,56.73,73.02,36.86,131.07,87.27,172.53,149.85,24.61,37.15,43.68,79.18,56.68,124.93,11.98,42.17,19.07,88.4,21.15,137.8-47.66-3.37-145.47-16.4-239.85-66.4-69.7-36.92-124.99-87.35-164.35-149.89-23.23-36.92-41.23-78.69-53.49-124.15-11.19-41.5-17.84-86.94-19.84-135.48m-30.6-31.71c0,528.85,499.17,538.75,536.52,538.75,1.45,0,2.21-.02,2.21-.02,0-538.73-538.73-538.73-538.73-538.73h0Z"/><path class="cls-1" d="m1047.63,31.86c-1.69,23.98-5.79,60.47-15.71,102.56-10.26,43.53-24.66,84.5-42.8,121.77-22.41,46.04-50.64,86.56-83.91,120.41-40.15,40.85-88.44,72.76-143.52,94.84-55.7,22.32-119.48,35.06-189.97,37.97,4.08-45.62,17.6-135.73,62.42-225.37,36.74-73.48,87.13-131.91,149.76-173.66,37.22-24.81,79.35-44.04,125.25-57.15,42.35-12.1,88.82-19.26,138.49-21.35m31.11-30.6c-538.74,0-538.74,538.74-538.74,538.74C1089.41,540,1078.73,1.26,1078.73,1.26h0Z"/><path class="cls-1" d="m31.85,32.37c47.66,3.37,145.47,16.4,239.85,66.4,69.7,36.92,124.99,87.35,164.35,149.89,23.23,36.92,41.23,78.69,53.49,124.15,11.19,41.5,17.84,86.94,19.84,135.48-13.46-1.2-30.77-3.21-50.71-6.6-44.05-7.48-110.42-23.39-176.46-56.73-73.02-36.86-131.07-87.27-172.53-149.85-24.61-37.15-43.68-79.18-56.68-124.93-11.98-42.17-19.07-88.4-21.15-137.8M3.46,1.25c-1.45,0-2.21.01-2.21.01,0,538.73,538.73,538.73,538.73,538.73C539.98,11.15,40.81,1.25,3.46,1.25h0Z"/></svg>