<?xml version="1.0" encoding="utf-8"?>
<!-- Generator: Adobe Illustrator 26.3.1, SVG Export Plug-In . SVG Version: 6.00 Build 0)  -->
<svg version="1.1" xmlns="http://www.w3.org/2000/svg" xmlns:xlink="http://www.w3.org/1999/xlink" x="0px" y="0px"
	 viewBox="0 0 143.89 143.89" style="enable-background:new 0 0 143.89 143.89;" xml:space="preserve">
<style type="text/css">
	.st0{fill:none;stroke:#1D1D1B;stroke-width:4;stroke-miterlimit:10;}
	.st1{fill:#1D1D1B;}
	.st2{fill:none;stroke:#1D1D1B;stroke-width:3.8869;stroke-linecap:round;stroke-linejoin:round;stroke-miterlimit:10;}
	.st3{fill:none;stroke:#1D1D1B;stroke-width:4.6866;stroke-miterlimit:10;}
	.st4{fill:none;stroke:#1D1D1B;stroke-width:3.9032;stroke-miterlimit:10;}
	.st5{fill:none;stroke:#1D1D1B;stroke-width:4;stroke-linecap:round;stroke-miterlimit:10;}
	.st6{fill:none;stroke:#1D1D1B;stroke-width:3.6387;stroke-miterlimit:10;}
	.st7{fill:none;stroke:#1D1D1B;stroke-width:3.4693;stroke-miterlimit:10;}
	.st8{fill:none;stroke:#1D1D1B;stroke-width:3;stroke-linecap:round;stroke-miterlimit:10;}
	.st9{fill:none;stroke:#1D1D1B;stroke-width:3.4693;stroke-linejoin:round;stroke-miterlimit:10;}
	.st10{fill:none;stroke:#AA2D29;stroke-width:4;stroke-miterlimit:10;}
	.st11{fill:none;stroke:#1D1D1B;stroke-width:3.1111;stroke-miterlimit:10;}
	.st12{fill:none;stroke:#1D1D1B;stroke-width:4.0677;stroke-miterlimit:10;}
	.st13{fill:none;stroke:#1D1D1B;stroke-width:4.0677;stroke-linecap:round;stroke-linejoin:bevel;stroke-miterlimit:10;}
	.st14{fill:none;stroke:#1D1D1B;stroke-width:3;stroke-linecap:square;stroke-miterlimit:10;}
	.st15{fill:none;stroke:#1D1D1B;stroke-width:3.5;stroke-linecap:round;stroke-miterlimit:10;}
	.st16{fill:none;}
	.st17{fill:none;stroke:#003764;stroke-width:4;stroke-miterlimit:10;}
	.st18{fill:none;stroke:#C6AD9B;stroke-width:4;stroke-miterlimit:10;}
	.st19{display:none;}
	.st20{display:inline;}
	.st21{fill:none;stroke:#BE1622;stroke-width:0.5;stroke-miterlimit:10;}
	.st22{fill:none;stroke:#C14729;stroke-width:4;stroke-miterlimit:10;}
	.st23{fill:#C14729;}
	.st24{fill:none;stroke:#004987;stroke-width:3.8869;stroke-linecap:round;stroke-linejoin:round;stroke-miterlimit:10;}
	.st25{fill:#C56683;}
	.st26{fill:#6C3175;}
	.st27{fill:#F4B223;}
	.st28{fill:none;stroke:#F4B223;stroke-width:4;stroke-linecap:round;stroke-miterlimit:10;}
	.st29{fill:none;stroke:#2A7050;stroke-width:3.4693;stroke-miterlimit:10;}
	.st30{fill:none;stroke:#2A7050;stroke-width:3.4693;stroke-linejoin:round;stroke-miterlimit:10;}
</style>
<g id="GUIAS">
</g>
<g id="Capa_1">
	<g>
		<g>
			<g>
				<path class="st1" d="M75.55,54.36c1.07,0,2.07,0.42,2.82,1.17c0.75,0.75,1.17,1.76,1.17,2.82c0,1.07-0.42,2.07-1.17,2.82
					c-0.75,0.75-1.76,1.17-2.82,1.17s-2.07-0.42-2.82-1.17c-0.75-0.75-1.17-1.76-1.17-2.82c0-1.07,0.42-2.07,1.17-2.82
					C73.48,54.78,74.48,54.36,75.55,54.36 M75.55,50.36c-2.05,0-4.09,0.78-5.65,2.34c-3.12,3.12-3.12,8.18,0,11.3
					c1.56,1.56,3.61,2.34,5.65,2.34s4.09-0.78,5.65-2.34c3.12-3.12,3.12-8.18,0-11.3C79.64,51.14,77.6,50.36,75.55,50.36
					L75.55,50.36z"/>
			</g>
		</g>
		<path class="st5" d="M45.17,83.08c1.58-1.58,4.41,1.24,6-0.34c1.58-1.58-1.24-4.41,0.34-6c1.59-1.59,4.41,1.24,6-0.34
			c1.59-1.59-1.24-4.42,0.35-6c1.59-1.59,4.42,1.24,6-0.35l6.05-6.05"/>
	</g>
	<g>
		<g>
			<g>
				<path class="st1" d="M117.56,46.37c1.07,0,2.07,0.42,2.82,1.17c1.56,1.56,1.56,4.09,0,5.65c-0.75,0.75-1.76,1.17-2.82,1.17
					s-2.07-0.42-2.82-1.17c-1.56-1.56-1.56-4.09,0-5.65C115.49,46.78,116.5,46.37,117.56,46.37 M117.56,42.37
					c-2.05,0-4.09,0.78-5.65,2.34c-3.12,3.12-3.12,8.18,0,11.3c1.56,1.56,3.61,2.34,5.65,2.34s4.09-0.78,5.65-2.34
					c3.12-3.12,3.12-8.18,0-11.3C121.66,43.15,119.61,42.37,117.56,42.37L117.56,42.37z"/>
			</g>
		</g>
	</g>
	<g>
		<g>
			<g>
				<path class="st1" d="M31.74,112.74c1.07,0,2.07,0.42,2.82,1.17c1.56,1.56,1.56,4.09,0,5.65c-0.75,0.75-1.76,1.17-2.82,1.17
					c-1.07,0-2.07-0.42-2.82-1.17c-1.56-1.56-1.56-4.09,0-5.65C29.67,113.16,30.67,112.74,31.74,112.74 M31.74,108.74
					c-2.05,0-4.09,0.78-5.65,2.34c-3.12,3.12-3.12,8.18,0,11.3c1.56,1.56,3.61,2.34,5.65,2.34c2.05,0,4.09-0.78,5.65-2.34
					c3.12-3.12,3.12-8.18,0-11.3C35.83,109.52,33.78,108.74,31.74,108.74L31.74,108.74z"/>
			</g>
		</g>
		<path class="st5" d="M1.36,141.46c1.58-1.58,4.41,1.24,6-0.34c1.58-1.58-1.24-4.41,0.34-6c1.59-1.59,4.41,1.24,6-0.34
			c1.59-1.59-1.24-4.42,0.35-6c1.59-1.59,4.42,1.24,6-0.35l6.05-6.05"/>
	</g>
	<g>
		<g>
			<g>
				<path class="st1" d="M88.27,100.27c1.07,0,2.07,0.42,2.82,1.17c0.75,0.75,1.17,1.76,1.17,2.82c0,1.07-0.42,2.07-1.17,2.82
					c-0.75,0.75-1.76,1.17-2.82,1.17s-2.07-0.42-2.82-1.17c-1.56-1.56-1.56-4.09,0-5.65C86.2,100.68,87.21,100.27,88.27,100.27
					 M88.27,96.27c-2.05,0-4.09,0.78-5.65,2.34c-3.12,3.12-3.12,8.18,0,11.3c1.56,1.56,3.61,2.34,5.65,2.34s4.09-0.78,5.65-2.34
					c3.12-3.12,3.12-8.18,0-11.3C92.36,97.05,90.32,96.27,88.27,96.27L88.27,96.27z"/>
			</g>
		</g>
		<path class="st5" d="M57.89,128.99c1.58-1.58,4.41,1.24,6-0.34c1.58-1.58-1.24-4.41,0.34-6c1.59-1.59,4.41,1.24,6-0.34
			c1.59-1.59-1.24-4.42,0.35-6c1.59-1.59,4.42,1.24,6-0.35l6.05-6.05"/>
	</g>
	<path class="st11" d="M77.58,74.79c6.68,5.02,14.99,8,23.99,8c22.07,0,39.97-17.89,39.97-39.97S123.64,2.85,101.57,2.85
		S61.6,20.75,61.6,42.82c0,2.69,0.27,5.32,0.77,7.86"/>
	<path class="st12" d="M77.58,74.79c6.68,5.02,14.99,8,23.99,8c22.07,0,39.97-17.89,39.97-39.97S123.64,2.85,101.57,2.85
		S61.6,20.75,61.6,42.82c0,2.69,0.27,5.32,0.77,7.86"/>
</g>
<g id="GRID1" class="st19">
	<g class="st20">
		<line class="st21" x1="0" y1="7.99" x2="143.89" y2="7.99"/>
		<line class="st21" x1="0" y1="23.98" x2="143.89" y2="23.98"/>
		<line class="st21" x1="0" y1="39.97" x2="143.89" y2="39.97"/>
		<line class="st21" x1="0" y1="55.96" x2="143.89" y2="55.96"/>
		<line class="st21" x1="0" y1="71.94" x2="143.89" y2="71.94"/>
		<line class="st21" x1="0" y1="87.93" x2="143.89" y2="87.93"/>
		<line class="st21" x1="0" y1="103.92" x2="143.89" y2="103.92"/>
		<line class="st21" x1="0" y1="119.91" x2="143.89" y2="119.91"/>
		<line class="st21" x1="0" y1="135.89" x2="143.89" y2="135.89"/>
		<line class="st21" x1="135.88" y1="0" x2="135.88" y2="143.89"/>
		<line class="st21" x1="119.91" y1="0" x2="119.91" y2="143.89"/>
		<line class="st21" x1="103.93" y1="0" x2="103.93" y2="143.89"/>
		<line class="st21" x1="87.96" y1="0" x2="87.96" y2="143.89"/>
		<line class="st21" x1="71.99" y1="0" x2="71.99" y2="143.89"/>
		<line class="st21" x1="56.02" y1="0" x2="56.02" y2="143.89"/>
		<line class="st21" x1="40.05" y1="0" x2="40.05" y2="143.89"/>
		<line class="st21" x1="24.08" y1="0" x2="24.08" y2="143.89"/>
		<line class="st21" x1="8.1" y1="0" x2="8.1" y2="143.89"/>
	</g>
</g>
<g id="GRID2" class="st19">
</g>
<g id="Capa_5">
</g>
</svg>
