<?xml version="1.0" encoding="UTF-8"?><svg id="Capa_1" xmlns="http://www.w3.org/2000/svg" viewBox="0 0 1080 1080"><defs><style>.cls-1{fill:none;stroke:#000000;stroke-linecap:round;stroke-miterlimit:10;stroke-width:29.95px;}.cls-2{fill:#000000;}</style></defs><path class="cls-2" d="m1019.61,31.79c16.49,0,29.91,13.42,29.91,29.91s-13.42,29.91-29.91,29.91-29.91-13.42-29.91-29.91c0-7.99,3.11-15.5,8.76-21.15,5.65-5.65,13.16-8.76,21.15-8.76h0m0-29.95c-33.06,0-59.86,26.8-59.86,59.86s26.8,59.86,59.86,59.86c33.06,0,59.86-26.8,59.86-59.86,0-33.06-26.8-59.86-59.86-59.86h0Z"/><path class="cls-2" d="m60.39,988.39c16.49,0,29.91,13.42,29.91,29.91s-13.42,29.91-29.91,29.91-29.91-13.42-29.91-29.91,13.42-29.91,29.91-29.91m0-29.95c-33.06,0-59.86,26.8-59.86,59.86,0,33.06,26.8,59.86,59.86,59.86s59.86-26.8,59.86-59.86-26.8-59.86-59.86-59.86h0Z"/><path class="cls-1" d="m894.63,61.7H180.96c-66.45,0-120.19,54.12-119.72,120.56h0c.46,65.8,53.93,118.88,119.72,118.88h718.57c65.98,0,119.53,53.39,119.72,119.37h0c.19,66.26-53.46,120.07-119.72,120.07H180.11c-66.12,0-119.72,53.6-119.72,119.72h0c0,66.12,53.6,119.72,119.72,119.72h719.42c65.98,0,119.53,53.39,119.72,119.37h0c.19,66.26-53.46,120.07-119.72,120.07H181.69"/></svg>