<?xml version="1.0" encoding="utf-8"?>
<!-- Generator: Adobe Illustrator 26.3.1, SVG Export Plug-In . SVG Version: 6.00 Build 0)  -->
<svg version="1.1" xmlns="http://www.w3.org/2000/svg" xmlns:xlink="http://www.w3.org/1999/xlink" x="0px" y="0px"
	 viewBox="0 0 143.89 143.89" style="enable-background:new 0 0 143.89 143.89;" xml:space="preserve">
<style type="text/css">
	.st0{fill:none;stroke:#BF821F;stroke-width:4;stroke-miterlimit:10;}
	.st1{fill:#BF821F;}
	.st2{fill:none;stroke:#BF821F;stroke-width:3.8869;stroke-linecap:round;stroke-linejoin:round;stroke-miterlimit:10;}
	.st3{fill:none;stroke:#BF821F;stroke-width:4.6866;stroke-miterlimit:10;}
	.st4{fill:none;stroke:#BF821F;stroke-width:3.9032;stroke-miterlimit:10;}
	.st5{fill:none;stroke:#BF821F;stroke-width:4;stroke-linecap:round;stroke-miterlimit:10;}
	.st6{fill:none;stroke:#BF821F;stroke-width:3.6387;stroke-miterlimit:10;}
	.st7{fill:none;stroke:#BF821F;stroke-width:3.4693;stroke-miterlimit:10;}
	.st8{fill:none;stroke:#BF821F;stroke-width:3;stroke-linecap:round;stroke-miterlimit:10;}
	.st9{fill:none;stroke:#BF821F;stroke-width:3.4693;stroke-linejoin:round;stroke-miterlimit:10;}
	.st10{fill:none;stroke:#AA2D29;stroke-width:4;stroke-miterlimit:10;}
	.st11{fill:none;stroke:#BF821F;stroke-width:3.1111;stroke-miterlimit:10;}
	.st12{fill:none;stroke:#BF821F;stroke-width:4.0677;stroke-miterlimit:10;}
	.st13{fill:none;stroke:#BF821F;stroke-width:4.0677;stroke-linecap:round;stroke-linejoin:bevel;stroke-miterlimit:10;}
	.st14{fill:none;stroke:#BF821F;stroke-width:3;stroke-linecap:square;stroke-miterlimit:10;}
	.st15{fill:none;stroke:#BF821F;stroke-width:3.5;stroke-linecap:round;stroke-miterlimit:10;}
	.st16{fill:none;}
	.st17{fill:none;stroke:#003764;stroke-width:4;stroke-miterlimit:10;}
	.st18{fill:none;stroke:#C6AD9B;stroke-width:4;stroke-miterlimit:10;}
	.st19{display:none;}
	.st20{display:inline;}
	.st21{fill:none;stroke:#BE1622;stroke-width:0.5;stroke-miterlimit:10;}
	.st22{fill:none;stroke:#C14729;stroke-width:4;stroke-miterlimit:10;}
	.st23{fill:#C14729;}
	.st24{fill:none;stroke:#004987;stroke-width:3.8869;stroke-linecap:round;stroke-linejoin:round;stroke-miterlimit:10;}
	.st25{fill:#C56683;}
	.st26{fill:#6C3175;}
	.st27{fill:#F4B223;}
	.st28{fill:none;stroke:#F4B223;stroke-width:4;stroke-linecap:round;stroke-miterlimit:10;}
	.st29{fill:none;stroke:#2A7050;stroke-width:3.4693;stroke-miterlimit:10;}
	.st30{fill:none;stroke:#2A7050;stroke-width:3.4693;stroke-linejoin:round;stroke-miterlimit:10;}
</style>
<g id="GUIAS">
</g>
<g id="Capa_1">
	<g>
		<g>
			<path class="st1" d="M135.97,4c2.2,0,3.99,1.79,3.99,3.99c0,2.2-1.79,3.99-3.99,3.99s-3.99-1.79-3.99-3.99
				C131.98,5.79,133.77,4,135.97,4 M135.97,0c-4.41,0-7.99,3.58-7.99,7.99c0,4.41,3.58,7.99,7.99,7.99s7.99-3.58,7.99-7.99
				C143.96,3.58,140.39,0,135.97,0L135.97,0z"/>
		</g>
	</g>
	<g>
		<g>
			<path class="st1" d="M7.88,131.74c2.2,0,3.99,1.79,3.99,3.99s-1.79,3.99-3.99,3.99s-3.99-1.79-3.99-3.99
				C3.88,133.53,5.68,131.74,7.88,131.74 M7.88,127.74c-4.41,0-7.99,3.58-7.99,7.99s3.58,7.99,7.99,7.99c4.41,0,7.99-3.58,7.99-7.99
				S12.29,127.74,7.88,127.74L7.88,127.74z"/>
		</g>
	</g>
	<path class="st5" d="M119.28,7.99h-95.3c-8.87,0-16.05,7.23-15.99,16.1l0,0c0.06,8.79,7.2,15.87,15.99,15.87h95.96
		c8.81,0,15.96,7.13,15.99,15.94v0c0.03,8.85-7.14,16.03-15.99,16.03H23.86c-8.83,0-15.99,7.16-15.99,15.99v0
		c0,8.83,7.16,15.99,15.99,15.99h96.07c8.81,0,15.96,7.13,15.99,15.94v0c0.03,8.85-7.14,16.03-15.99,16.03H24.08"/>
</g>
<g id="GRID1" class="st19">
	<g class="st20">
		<rect x="0" class="st21" width="143.89" height="143.89"/>
		<line class="st21" x1="0" y1="127.9" x2="143.89" y2="127.9"/>
		<line class="st21" x1="0" y1="111.91" x2="143.89" y2="111.91"/>
		<line class="st21" x1="0" y1="95.92" x2="143.89" y2="95.92"/>
		<line class="st21" x1="0" y1="79.94" x2="143.89" y2="79.94"/>
		<line class="st21" x1="0" y1="63.95" x2="143.89" y2="63.95"/>
		<line class="st21" x1="0" y1="47.96" x2="143.89" y2="47.96"/>
		<line class="st21" x1="0" y1="31.97" x2="143.89" y2="31.97"/>
		<line class="st21" x1="0" y1="15.99" x2="143.89" y2="15.99"/>
		<line class="st21" x1="127.9" y1="0" x2="127.9" y2="143.89"/>
		<line class="st21" x1="111.91" y1="0" x2="111.91" y2="143.89"/>
		<line class="st21" x1="95.92" y1="0" x2="95.92" y2="143.89"/>
		<line class="st21" x1="79.94" y1="0" x2="79.94" y2="143.89"/>
		<line class="st21" x1="63.95" y1="0" x2="63.95" y2="143.89"/>
		<line class="st21" x1="47.96" y1="0" x2="47.96" y2="143.89"/>
		<line class="st21" x1="31.97" y1="0" x2="31.97" y2="143.89"/>
		<line class="st21" x1="15.99" y1="0" x2="15.99" y2="143.89"/>
	</g>
	<g class="st20">
		<line class="st21" x1="0" y1="7.99" x2="143.89" y2="7.99"/>
		<line class="st21" x1="0" y1="23.98" x2="143.89" y2="23.98"/>
		<line class="st21" x1="0" y1="39.97" x2="143.89" y2="39.97"/>
		<line class="st21" x1="0" y1="55.96" x2="143.89" y2="55.96"/>
		<line class="st21" x1="0" y1="71.94" x2="143.89" y2="71.94"/>
		<line class="st21" x1="0" y1="87.93" x2="143.89" y2="87.93"/>
		<line class="st21" x1="0" y1="103.92" x2="143.89" y2="103.92"/>
		<line class="st21" x1="0" y1="119.91" x2="143.89" y2="119.91"/>
		<line class="st21" x1="0" y1="135.89" x2="143.89" y2="135.89"/>
		<line class="st21" x1="135.88" y1="0" x2="135.88" y2="143.89"/>
		<line class="st21" x1="119.91" y1="0" x2="119.91" y2="143.89"/>
		<line class="st21" x1="103.93" y1="0" x2="103.93" y2="143.89"/>
		<line class="st21" x1="87.96" y1="0" x2="87.96" y2="143.89"/>
		<line class="st21" x1="71.99" y1="0" x2="71.99" y2="143.89"/>
		<line class="st21" x1="56.02" y1="0" x2="56.02" y2="143.89"/>
		<line class="st21" x1="40.05" y1="0" x2="40.05" y2="143.89"/>
		<line class="st21" x1="24.08" y1="0" x2="24.08" y2="143.89"/>
		<line class="st21" x1="8.1" y1="0" x2="8.1" y2="143.89"/>
	</g>
</g>
<g id="GRID2" class="st19">
</g>
<g id="Capa_5">
</g>
</svg>
