<?xml version="1.0" encoding="utf-8"?>
<!-- Generator: Adobe Illustrator 26.3.1, SVG Export Plug-In . SVG Version: 6.00 Build 0)  -->
<svg version="1.1" xmlns="http://www.w3.org/2000/svg" xmlns:xlink="http://www.w3.org/1999/xlink" x="0px" y="0px"
	 viewBox="0 0 143.89 143.89" style="enable-background:new 0 0 143.89 143.89;" xml:space="preserve">
<style type="text/css">
	.st0{fill:none;stroke:#1D1D1B;stroke-width:4;stroke-miterlimit:10;}
	.st1{fill:#1D1D1B;}
	.st2{fill:none;stroke:#1D1D1B;stroke-width:3.8869;stroke-linecap:round;stroke-linejoin:round;stroke-miterlimit:10;}
	.st3{fill:none;stroke:#1D1D1B;stroke-width:4.6866;stroke-miterlimit:10;}
	.st4{fill:none;stroke:#1D1D1B;stroke-width:3.9032;stroke-miterlimit:10;}
	.st5{fill:none;stroke:#1D1D1B;stroke-width:4;stroke-linecap:round;stroke-miterlimit:10;}
	.st6{fill:none;stroke:#1D1D1B;stroke-width:3.6387;stroke-miterlimit:10;}
	.st7{fill:none;stroke:#1D1D1B;stroke-width:3.4693;stroke-miterlimit:10;}
	.st8{fill:none;stroke:#1D1D1B;stroke-width:3;stroke-linecap:round;stroke-miterlimit:10;}
	.st9{fill:none;stroke:#1D1D1B;stroke-width:3.4693;stroke-linejoin:round;stroke-miterlimit:10;}
	.st10{fill:none;stroke:#AA2D29;stroke-width:4;stroke-miterlimit:10;}
	.st11{fill:none;stroke:#1D1D1B;stroke-width:3.1111;stroke-miterlimit:10;}
	.st12{fill:none;stroke:#1D1D1B;stroke-width:4.0677;stroke-miterlimit:10;}
	.st13{fill:none;stroke:#1D1D1B;stroke-width:4.0677;stroke-linecap:round;stroke-linejoin:bevel;stroke-miterlimit:10;}
	.st14{fill:none;stroke:#1D1D1B;stroke-width:3;stroke-linecap:square;stroke-miterlimit:10;}
	.st15{fill:none;stroke:#1D1D1B;stroke-width:3.5;stroke-linecap:round;stroke-miterlimit:10;}
	.st16{fill:none;}
	.st17{fill:none;stroke:#003764;stroke-width:4;stroke-miterlimit:10;}
	.st18{fill:none;stroke:#C6AD9B;stroke-width:4;stroke-miterlimit:10;}
	.st19{display:none;}
	.st20{display:inline;}
	.st21{fill:none;stroke:#BE1622;stroke-width:0.5;stroke-miterlimit:10;}
	.st22{fill:none;stroke:#C14729;stroke-width:4;stroke-miterlimit:10;}
	.st23{fill:#C14729;}
	.st24{fill:none;stroke:#004987;stroke-width:3.8869;stroke-linecap:round;stroke-linejoin:round;stroke-miterlimit:10;}
	.st25{fill:#C56683;}
	.st26{fill:#6C3175;}
	.st27{fill:#F4B223;}
	.st28{fill:none;stroke:#F4B223;stroke-width:4;stroke-linecap:round;stroke-miterlimit:10;}
	.st29{fill:none;stroke:#2A7050;stroke-width:3.4693;stroke-miterlimit:10;}
	.st30{fill:none;stroke:#2A7050;stroke-width:3.4693;stroke-linejoin:round;stroke-miterlimit:10;}
</style>
<g id="GUIAS">
</g>
<g id="Capa_1">
	<g>
		<g>
			<path class="st1" d="M71.94,28.18c24.13,0,43.76,19.63,43.76,43.76s-19.63,43.76-43.76,43.76c-24.13,0-43.76-19.63-43.76-43.76
				S47.81,28.18,71.94,28.18 M71.94,24.18c-26.38,0-47.76,21.38-47.76,47.76s21.38,47.76,47.76,47.76s47.76-21.38,47.76-47.76
				S98.32,24.18,71.94,24.18L71.94,24.18z"/>
		</g>
	</g>
	<g>
		<g>
			<path class="st1" d="M24.2,116.07c2.2,0,3.99,1.79,3.99,3.99s-1.79,3.99-3.99,3.99s-3.99-1.79-3.99-3.99S22,116.07,24.2,116.07
				 M24.2,112.07c-4.41,0-7.99,3.58-7.99,7.99s3.58,7.99,7.99,7.99s7.99-3.58,7.99-7.99S28.61,112.07,24.2,112.07L24.2,112.07z"/>
		</g>
	</g>
	<g>
		<g>
			<path class="st1" d="M72.2,131.95c2.2,0,3.99,1.79,3.99,3.99s-1.79,3.99-3.99,3.99s-3.99-1.79-3.99-3.99
				S69.99,131.95,72.2,131.95 M72.2,127.95c-4.41,0-7.99,3.58-7.99,7.99s3.58,7.99,7.99,7.99s7.99-3.58,7.99-7.99
				S76.61,127.95,72.2,127.95L72.2,127.95z"/>
		</g>
	</g>
	<g>
		<g>
			<path class="st1" d="M119.92,115.86c2.2,0,3.99,1.79,3.99,3.99c0,2.2-1.79,3.99-3.99,3.99s-3.99-1.79-3.99-3.99
				c0-1.07,0.42-2.07,1.17-2.82S118.86,115.86,119.92,115.86L119.92,115.86 M119.92,111.86c-4.41,0-7.99,3.58-7.99,7.99
				s3.58,7.99,7.99,7.99s7.99-3.58,7.99-7.99C127.92,115.44,124.34,111.86,119.92,111.86L119.92,111.86z"/>
		</g>
	</g>
	<g>
		<g>
			<path class="st1" d="M119.92,20.41c1.07,0,2.07,0.42,2.82,1.17c0.75,0.75,1.17,1.76,1.17,2.82c0,1.07-0.42,2.07-1.17,2.82
				s-1.76,1.17-2.82,1.17c-2.2,0-3.99-1.79-3.99-3.99C115.93,22.2,117.72,20.41,119.92,20.41 M119.92,16.41
				c-4.41,0-7.99,3.58-7.99,7.99c0,4.41,3.58,7.99,7.99,7.99c4.41,0,7.99-3.58,7.99-7.99C127.92,19.99,124.34,16.41,119.92,16.41
				L119.92,16.41z"/>
		</g>
	</g>
	<g>
		<g>
			<path class="st1" d="M71.93,4.53c2.2,0,3.99,1.79,3.99,3.99s-1.79,3.99-3.99,3.99s-3.99-1.79-3.99-3.99S69.72,4.53,71.93,4.53
				 M71.93,0.53c-4.41,0-7.99,3.58-7.99,7.99s3.58,7.99,7.99,7.99s7.99-3.58,7.99-7.99S76.34,0.53,71.93,0.53L71.93,0.53z"/>
		</g>
	</g>
	<g>
		<g>
			<path class="st1" d="M24.2,20.63c2.2,0,3.99,1.79,3.99,3.99s-1.79,3.99-3.99,3.99s-3.99-1.79-3.99-3.99S22,20.63,24.2,20.63
				 M24.2,16.63c-4.41,0-7.99,3.58-7.99,7.99s3.58,7.99,7.99,7.99s7.99-3.58,7.99-7.99S28.61,16.63,24.2,16.63L24.2,16.63z"/>
		</g>
	</g>
	<g>
		<g>
			<path class="st1" d="M135.91,67.9c2.2,0,3.99,1.79,3.99,3.99s-1.79,3.99-3.99,3.99c-1.07,0-2.07-0.42-2.82-1.17
				c-0.75-0.75-1.17-1.76-1.17-2.82C131.92,69.69,133.71,67.9,135.91,67.9 M135.91,63.9c-4.41,0-7.99,3.58-7.99,7.99
				c0,4.41,3.58,7.99,7.99,7.99s7.99-3.58,7.99-7.99S140.33,63.9,135.91,63.9L135.91,63.9z"/>
		</g>
	</g>
	<g>
		<g>
			<path class="st1" d="M7.99,67.9c2.2,0,3.99,1.79,3.99,3.99c0,2.2-1.79,3.99-3.99,3.99S4,74.09,4,71.89S5.79,67.9,7.99,67.9
				 M7.99,63.9C3.58,63.9,0,67.47,0,71.89s3.58,7.99,7.99,7.99s7.99-3.58,7.99-7.99C15.99,67.47,12.41,63.9,7.99,63.9L7.99,63.9z"/>
		</g>
	</g>
	<g>
		<g>
			<path class="st1" d="M71.94,52.36c10.8,0,19.58,8.78,19.58,19.58s-8.78,19.58-19.58,19.58s-19.58-8.78-19.58-19.58
				S61.15,52.36,71.94,52.36 M71.94,48.36c-13.02,0-23.58,10.56-23.58,23.58c0,13.02,10.56,23.58,23.58,23.58
				c13.02,0,23.58-10.56,23.58-23.58C95.53,58.92,84.97,48.36,71.94,48.36L71.94,48.36z"/>
		</g>
	</g>
</g>
<g id="GRID1" class="st19">
	<g class="st20">
		<rect x="0" class="st21" width="143.89" height="143.89"/>
		<line class="st21" x1="0" y1="127.9" x2="143.89" y2="127.9"/>
		<line class="st21" x1="0" y1="111.91" x2="143.89" y2="111.91"/>
		<line class="st21" x1="0" y1="95.92" x2="143.89" y2="95.92"/>
		<line class="st21" x1="0" y1="79.94" x2="143.89" y2="79.94"/>
		<line class="st21" x1="0" y1="63.95" x2="143.89" y2="63.95"/>
		<line class="st21" x1="0" y1="47.96" x2="143.89" y2="47.96"/>
		<line class="st21" x1="0" y1="31.97" x2="143.89" y2="31.97"/>
		<line class="st21" x1="0" y1="15.99" x2="143.89" y2="15.99"/>
		<line class="st21" x1="127.9" y1="0" x2="127.9" y2="143.89"/>
		<line class="st21" x1="111.91" y1="0" x2="111.91" y2="143.89"/>
		<line class="st21" x1="95.92" y1="0" x2="95.92" y2="143.89"/>
		<line class="st21" x1="79.94" y1="0" x2="79.94" y2="143.89"/>
		<line class="st21" x1="63.95" y1="0" x2="63.95" y2="143.89"/>
		<line class="st21" x1="47.96" y1="0" x2="47.96" y2="143.89"/>
		<line class="st21" x1="31.97" y1="0" x2="31.97" y2="143.89"/>
		<line class="st21" x1="15.99" y1="0" x2="15.99" y2="143.89"/>
	</g>
	<g class="st20">
		<line class="st21" x1="0" y1="7.99" x2="143.89" y2="7.99"/>
		<line class="st21" x1="0" y1="23.98" x2="143.89" y2="23.98"/>
		<line class="st21" x1="0" y1="39.97" x2="143.89" y2="39.97"/>
		<line class="st21" x1="0" y1="55.96" x2="143.89" y2="55.96"/>
		<line class="st21" x1="0" y1="71.94" x2="143.89" y2="71.94"/>
		<line class="st21" x1="0" y1="87.93" x2="143.89" y2="87.93"/>
		<line class="st21" x1="0" y1="103.92" x2="143.89" y2="103.92"/>
		<line class="st21" x1="0" y1="119.91" x2="143.89" y2="119.91"/>
		<line class="st21" x1="0" y1="135.89" x2="143.89" y2="135.89"/>
		<line class="st21" x1="135.88" y1="0" x2="135.88" y2="143.89"/>
		<line class="st21" x1="119.91" y1="0" x2="119.91" y2="143.89"/>
		<line class="st21" x1="103.93" y1="0" x2="103.93" y2="143.89"/>
		<line class="st21" x1="87.96" y1="0" x2="87.96" y2="143.89"/>
		<line class="st21" x1="71.99" y1="0" x2="71.99" y2="143.89"/>
		<line class="st21" x1="56.02" y1="0" x2="56.02" y2="143.89"/>
		<line class="st21" x1="40.05" y1="0" x2="40.05" y2="143.89"/>
		<line class="st21" x1="24.08" y1="0" x2="24.08" y2="143.89"/>
		<line class="st21" x1="8.1" y1="0" x2="8.1" y2="143.89"/>
	</g>
</g>
<g id="GRID2" class="st19">
</g>
<g id="Capa_5">
</g>
</svg>
