<?xml version="1.0" encoding="UTF-8"?><svg id="Capa_1" xmlns="http://www.w3.org/2000/svg" viewBox="0 0 1080 1080"><defs><style>.cls-1{fill:#000000;}</style></defs><path class="cls-1" d="m539.93,210.1c44.25,0,87.17,8.66,127.55,25.74,39.02,16.5,74.07,40.14,104.18,70.24,30.11,30.11,53.74,65.16,70.24,104.18,17.08,40.38,25.74,83.3,25.74,127.55s-8.66,87.17-25.74,127.55c-16.5,39.02-40.14,74.07-70.24,104.18-30.11,30.11-65.16,53.74-104.18,70.24-40.38,17.08-83.3,25.74-127.55,25.74s-87.17-8.66-127.55-25.74c-39.02-16.5-74.07-40.14-104.18-70.24-30.11-30.11-53.74-65.16-70.24-104.18-17.08-40.38-25.74-83.3-25.74-127.55s8.66-87.17,25.74-127.55c16.5-39.02,40.14-74.07,70.24-104.18,30.11-30.11,65.16-53.74,104.18-70.24,40.38-17.08,83.3-25.74,127.55-25.74m0-29.95c-197.53,0-357.66,160.13-357.66,357.66s160.13,357.66,357.66,357.66,357.66-160.13,357.66-357.66-160.13-357.66-357.66-357.66h0Z"/><path class="cls-1" d="m182.4,868.28c7.99,0,15.5,3.11,21.15,8.76,5.65,5.65,8.76,13.16,8.76,21.15,0,16.49-13.42,29.91-29.91,29.91s-29.91-13.42-29.91-29.91c0-7.99,3.11-15.5,8.76-21.15,5.65-5.65,13.16-8.76,21.15-8.76h0m0-29.95c-33.06,0-59.86,26.8-59.86,59.86,0,33.06,26.8,59.86,59.86,59.86s59.86-26.8,59.86-59.86c0-33.06-26.8-59.86-59.86-59.86h0Z"/><path class="cls-1" d="m541.83,987.19c16.49,0,29.91,13.42,29.91,29.91s-13.42,29.91-29.91,29.91c-16.49,0-29.91-13.42-29.91-29.91,0-7.99,3.11-15.5,8.76-21.15,5.65-5.65,13.16-8.76,21.15-8.76h0m0-29.95c-33.06,0-59.86,26.8-59.86,59.86,0,33.06,26.8,59.86,59.86,59.86,33.06,0,59.86-26.8,59.86-59.86s-26.8-59.86-59.86-59.86h0Z"/><path class="cls-1" d="m899.23,866.66c16.49,0,29.91,13.42,29.91,29.91,0,7.99-3.11,15.5-8.76,21.15-5.65,5.65-13.16,8.76-21.15,8.76-16.49,0-29.91-13.42-29.91-29.91s13.42-29.91,29.91-29.91m0-29.95c-33.06,0-59.86,26.8-59.86,59.86s26.8,59.86,59.86,59.86c33.06,0,59.86-26.8,59.86-59.86s-26.8-59.86-59.86-59.86h0Z"/><path class="cls-1" d="m899.23,151.91c16.49,0,29.91,13.42,29.91,29.91,0,7.99-3.11,15.5-8.76,21.15s-13.16,8.76-21.15,8.76c-16.49,0-29.91-13.42-29.91-29.91,0-7.99,3.11-15.5,8.76-21.15s13.16-8.76,21.15-8.76h0m0-29.95c-33.06,0-59.86,26.8-59.86,59.86s26.8,59.86,59.86,59.86c33.06,0,59.86-26.8,59.86-59.86s-26.8-59.86-59.86-59.86h0Z"/><path class="cls-1" d="m539.8,33c7.99,0,15.5,3.11,21.15,8.76,5.65,5.65,8.76,13.16,8.76,21.15s-3.11,15.5-8.76,21.15c-5.65,5.65-13.16,8.76-21.15,8.76s-15.5-3.11-21.15-8.76c-5.65-5.65-8.76-13.16-8.76-21.15s3.11-15.5,8.76-21.15,13.16-8.76,21.15-8.76h0m0-29.95c-33.06,0-59.86,26.8-59.86,59.86,0,33.06,26.8,59.86,59.86,59.86,33.06,0,59.86-26.8,59.86-59.86,0-33.06-26.8-59.86-59.86-59.86h0Z"/><path class="cls-1" d="m182.4,153.53c16.49,0,29.91,13.42,29.91,29.91,0,7.99-3.11,15.5-8.76,21.15s-13.16,8.76-21.15,8.76c-16.49,0-29.91-13.42-29.91-29.91,0-7.99,3.11-15.5,8.76-21.15,5.65-5.65,13.16-8.76,21.15-8.76h0m0-29.95c-33.06,0-59.86,26.8-59.86,59.86,0,33.06,26.8,59.86,59.86,59.86,33.06,0,59.86-26.8,59.86-59.86s-26.8-59.86-59.86-59.86h0Z"/><path class="cls-1" d="m1018.95,507.5c16.49,0,29.91,13.42,29.91,29.91s-13.42,29.91-29.91,29.91-29.91-13.42-29.91-29.91c0-7.99,3.11-15.5,8.76-21.15,5.65-5.65,13.16-8.76,21.15-8.76h0m0-29.95c-33.06,0-59.86,26.8-59.86,59.86s26.8,59.86,59.86,59.86,59.86-26.8,59.86-59.86-26.8-59.86-59.86-59.86h0Z"/><path class="cls-1" d="m61.05,507.5c7.99,0,15.5,3.11,21.15,8.76,5.65,5.65,8.76,13.16,8.76,21.15,0,16.49-13.42,29.91-29.91,29.91-7.99,0-15.5-3.11-21.15-8.76-5.65-5.65-8.76-13.16-8.76-21.15s3.11-15.5,8.76-21.15c5.65-5.65,13.16-8.76,21.15-8.76h0m0-29.95c-33.06,0-59.86,26.8-59.86,59.86,0,33.06,26.8,59.86,59.86,59.86s59.86-26.8,59.86-59.86c0-33.06-26.8-59.86-59.86-59.86h0Z"/><path class="cls-1" d="m539.93,391.18c39.17,0,75.99,15.25,103.69,42.95,27.7,27.7,42.95,64.52,42.95,103.69s-15.25,75.99-42.95,103.69c-27.7,27.7-64.52,42.95-103.69,42.95s-75.99-15.25-103.69-42.95c-27.7-27.7-42.95-64.52-42.95-103.69s15.25-75.99,42.95-103.69c27.7-27.7,64.52-42.95,103.69-42.95m0-29.95c-97.53,0-176.59,79.06-176.59,176.59s79.06,176.59,176.59,176.59,176.59-79.06,176.59-176.59-79.06-176.59-176.59-176.59h0Z"/></svg>