<?xml version="1.0" encoding="utf-8"?>
<!-- Generator: Adobe Illustrator 26.3.1, SVG Export Plug-In . SVG Version: 6.00 Build 0)  -->
<svg version="1.1" xmlns="http://www.w3.org/2000/svg" xmlns:xlink="http://www.w3.org/1999/xlink" x="0px" y="0px"
	 viewBox="0 0 143.89 143.89" style="enable-background:new 0 0 143.89 143.89;" xml:space="preserve">
<style type="text/css">
	.st0{fill:none;stroke:#0A3F6A;stroke-width:4;stroke-miterlimit:10;}
	.st1{fill:#0A3F6A;}
	.st2{fill:none;stroke:#0A3F6A;stroke-width:3.8869;stroke-linecap:round;stroke-linejoin:round;stroke-miterlimit:10;}
	.st3{fill:none;stroke:#0A3F6A;stroke-width:4.6866;stroke-miterlimit:10;}
	.st4{fill:none;stroke:#0A3F6A;stroke-width:3.9032;stroke-miterlimit:10;}
	.st5{fill:none;stroke:#0A3F6A;stroke-width:4;stroke-linecap:round;stroke-miterlimit:10;}
	.st6{fill:none;stroke:#0A3F6A;stroke-width:3.6387;stroke-miterlimit:10;}
	.st7{fill:none;stroke:#0A3F6A;stroke-width:3.4693;stroke-miterlimit:10;}
	.st8{fill:none;stroke:#0A3F6A;stroke-width:3;stroke-linecap:round;stroke-miterlimit:10;}
	.st9{fill:none;stroke:#0A3F6A;stroke-width:3.4693;stroke-linejoin:round;stroke-miterlimit:10;}
	.st10{fill:none;stroke:#AA2D29;stroke-width:4;stroke-miterlimit:10;}
	.st11{fill:none;stroke:#0A3F6A;stroke-width:3.1111;stroke-miterlimit:10;}
	.st12{fill:none;stroke:#0A3F6A;stroke-width:4.0677;stroke-miterlimit:10;}
	.st13{fill:none;stroke:#0A3F6A;stroke-width:4.0677;stroke-linecap:round;stroke-linejoin:bevel;stroke-miterlimit:10;}
	.st14{fill:none;stroke:#0A3F6A;stroke-width:3;stroke-linecap:square;stroke-miterlimit:10;}
	.st15{fill:none;stroke:#0A3F6A;stroke-width:3.5;stroke-linecap:round;stroke-miterlimit:10;}
	.st16{fill:none;}
	.st17{fill:none;stroke:#003764;stroke-width:4;stroke-miterlimit:10;}
	.st18{fill:none;stroke:#C6AD9B;stroke-width:4;stroke-miterlimit:10;}
	.st19{display:none;}
	.st20{display:inline;}
	.st21{fill:none;stroke:#BE1622;stroke-width:0.5;stroke-miterlimit:10;}
	.st22{fill:none;stroke:#C14729;stroke-width:4;stroke-miterlimit:10;}
	.st23{fill:#C14729;}
	.st24{fill:none;stroke:#004987;stroke-width:3.8869;stroke-linecap:round;stroke-linejoin:round;stroke-miterlimit:10;}
	.st25{fill:#C56683;}
	.st26{fill:#6C3175;}
	.st27{fill:#F4B223;}
	.st28{fill:none;stroke:#F4B223;stroke-width:4;stroke-linecap:round;stroke-miterlimit:10;}
	.st29{fill:none;stroke:#2A7050;stroke-width:3.4693;stroke-miterlimit:10;}
	.st30{fill:none;stroke:#2A7050;stroke-width:3.4693;stroke-linejoin:round;stroke-miterlimit:10;}
</style>
<g id="GUIAS">
</g>
<g id="Capa_1">
	<circle class="st0" cx="94.3" cy="21.61" r="14.37"/>
	<path class="st0" d="M22.79,65.75L22.79,65.75c9.84-18.83,31.95-27.64,52.04-20.73l24.62,8.46c7.94,2.73,16.51,3.07,24.65,0.98
		l19.8-5.08"/>
	<path class="st0" d="M0.02,143.03l69.74-80.88l34.96,26.65c4.28,4.33,5.33,10.95,2.61,16.42l0,0c-2.38,4.77-7.21,7.78-12.48,7.78
		H52.3"/>
</g>
<g id="GRID1" class="st19">
	<g class="st20">
		<line class="st21" x1="0" y1="7.99" x2="143.89" y2="7.99"/>
		<line class="st21" x1="0" y1="23.98" x2="143.89" y2="23.98"/>
		<line class="st21" x1="0" y1="39.97" x2="143.89" y2="39.97"/>
		<line class="st21" x1="0" y1="55.96" x2="143.89" y2="55.96"/>
		<line class="st21" x1="0" y1="71.94" x2="143.89" y2="71.94"/>
		<line class="st21" x1="0" y1="87.93" x2="143.89" y2="87.93"/>
		<line class="st21" x1="0" y1="103.92" x2="143.89" y2="103.92"/>
		<line class="st21" x1="0" y1="119.91" x2="143.89" y2="119.91"/>
		<line class="st21" x1="0" y1="135.89" x2="143.89" y2="135.89"/>
		<line class="st21" x1="135.88" y1="0" x2="135.88" y2="143.89"/>
		<line class="st21" x1="119.91" y1="0" x2="119.91" y2="143.89"/>
		<line class="st21" x1="103.93" y1="0" x2="103.93" y2="143.89"/>
		<line class="st21" x1="87.96" y1="0" x2="87.96" y2="143.89"/>
		<line class="st21" x1="71.99" y1="0" x2="71.99" y2="143.89"/>
		<line class="st21" x1="56.02" y1="0" x2="56.02" y2="143.89"/>
		<line class="st21" x1="40.05" y1="0" x2="40.05" y2="143.89"/>
		<line class="st21" x1="24.08" y1="0" x2="24.08" y2="143.89"/>
		<line class="st21" x1="8.1" y1="0" x2="8.1" y2="143.89"/>
	</g>
</g>
<g id="GRID2" class="st19">
</g>
<g id="Capa_5">
</g>
</svg>
