<?xml version="1.0" encoding="utf-8"?>
<!-- Generator: Adobe Illustrator 26.3.1, SVG Export Plug-In . SVG Version: 6.00 Build 0)  -->
<svg version="1.1" xmlns="http://www.w3.org/2000/svg" xmlns:xlink="http://www.w3.org/1999/xlink" x="0px" y="0px"
	 viewBox="0 0 143.89 143.89" style="enable-background:new 0 0 143.89 143.89;" xml:space="preserve">
<style type="text/css">
	.st0{fill:none;stroke:#2E3192;stroke-width:9.7707;stroke-linecap:square;stroke-linejoin:bevel;stroke-miterlimit:10;}
	.st1{fill:none;stroke:#2E3192;stroke-width:9.7707;stroke-linecap:square;stroke-linejoin:bevel;}
	.st2{fill:none;stroke:#2E3192;stroke-width:9.7707;stroke-linecap:square;stroke-linejoin:bevel;stroke-dasharray:3.3921,18.7754;}
	.st3{fill:#2B3990;}
	.st4{fill:none;stroke:#2E3192;stroke-width:9.351;stroke-linecap:square;stroke-linejoin:bevel;stroke-miterlimit:10;}
	.st5{fill:none;stroke:#1D1D1B;stroke-width:4;stroke-miterlimit:10;}
	.st6{fill:#1D1D1B;}
	.st7{fill:none;stroke:#1D1D1B;stroke-width:3.8869;stroke-linecap:round;stroke-linejoin:round;stroke-miterlimit:10;}
	.st8{fill:none;stroke:#1D1D1B;stroke-width:4.6866;stroke-miterlimit:10;}
	.st9{fill:none;stroke:#1D1D1B;stroke-width:3.9032;stroke-miterlimit:10;}
	.st10{fill:none;stroke:#1D1D1B;stroke-width:4;stroke-linecap:round;stroke-miterlimit:10;}
	.st11{fill:none;stroke:#1D1D1B;stroke-width:3.6387;stroke-miterlimit:10;}
	.st12{fill:none;stroke:#1D1D1B;stroke-width:3.4693;stroke-miterlimit:10;}
	.st13{fill:none;stroke:#1D1D1B;stroke-width:3;stroke-linecap:round;stroke-miterlimit:10;}
	.st14{fill:none;stroke:#1D1D1B;stroke-width:3.4693;stroke-linejoin:round;stroke-miterlimit:10;}
	.st15{fill:none;stroke:#AA2D29;stroke-width:4;stroke-miterlimit:10;}
	.st16{fill:none;stroke:#1D1D1B;stroke-width:3.1111;stroke-miterlimit:10;}
	.st17{fill:none;stroke:#1D1D1B;stroke-width:4.0677;stroke-miterlimit:10;}
	.st18{fill:none;stroke:#1D1D1B;stroke-width:4.0677;stroke-linecap:round;stroke-linejoin:bevel;stroke-miterlimit:10;}
	.st19{fill:none;stroke:#1D1D1B;stroke-width:3;stroke-linecap:square;stroke-miterlimit:10;}
	.st20{fill:none;stroke:#1D1D1B;stroke-width:3.5;stroke-linecap:round;stroke-miterlimit:10;}
	.st21{fill:none;stroke:#1D1D1B;stroke-miterlimit:10;}
	.st22{fill:none;stroke:#003764;stroke-width:4;stroke-miterlimit:10;}
	.st23{fill:none;stroke:#C6AD9B;stroke-width:4;stroke-miterlimit:10;}
	.st24{fill:none;stroke:#1D1D1B;stroke-width:4;stroke-linecap:square;stroke-linejoin:bevel;stroke-miterlimit:10;}
	.st25{fill:none;stroke:#1D1D1B;stroke-width:4;stroke-linecap:square;stroke-linejoin:bevel;}
	.st26{fill:none;stroke:#1D1D1B;stroke-width:4;stroke-linecap:square;stroke-linejoin:bevel;stroke-dasharray:0.9287,5.1406;}
	.st27{fill:none;stroke:#1D1D1B;stroke-width:4;stroke-linejoin:bevel;stroke-miterlimit:10;}
	.st28{display:none;}
	.st29{display:inline;}
	.st30{fill:none;stroke:#BE1622;stroke-width:0.5;stroke-miterlimit:10;}
	.st31{fill:none;stroke:#C14729;stroke-width:4;stroke-miterlimit:10;}
	.st32{fill:#C14729;}
	.st33{fill:none;stroke:#004987;stroke-width:3.8869;stroke-linecap:round;stroke-linejoin:round;stroke-miterlimit:10;}
	.st34{fill:#C56683;}
	.st35{fill:#6C3175;}
	.st36{fill:#F4B223;}
	.st37{fill:none;stroke:#F4B223;stroke-width:4;stroke-linecap:round;stroke-miterlimit:10;}
	.st38{fill:none;stroke:#2A7050;stroke-width:3.4693;stroke-miterlimit:10;}
	.st39{fill:none;stroke:#2A7050;stroke-width:3.4693;stroke-linejoin:round;stroke-miterlimit:10;}
</style>
<g id="GUIAS">
</g>
<g id="Capa_1">
	<g>
		<path class="st6" d="M71.94,4c37.46,0,67.94,30.48,67.94,67.94c0,37.46-30.48,67.94-67.94,67.94C34.48,139.89,4,109.41,4,71.94
			C4,34.48,34.48,4,71.94,4 M71.94,0C32.21,0,0,32.21,0,71.94c0,39.73,32.21,71.94,71.94,71.94c39.73,0,71.94-32.21,71.94-71.94
			C143.89,32.21,111.68,0,71.94,0L71.94,0z"/>
	</g>
	<g>
		<path class="st24" d="M109.21,61.76H81.06H51.64H34.67v23.26c0,6.73,5.45,12.18,12.18,12.18h22.02c6.73,0,12.18-5.45,12.18-12.18
			v-13.6h28.16V61.76z"/>
		<path class="st24" d="M77.25,59.46c0-3.7-3.3-6.7-7.36-6.7c-1.56,0-3,0.44-4.19,1.2c-1.4-4.21-5.69-7.28-10.77-7.28
			c-5.53,0-10.13,3.64-11.08,8.43c-3.65,0.4-6.48,3.22-6.48,6.65h39.88C77.25,61.76,77.25,60.27,77.25,59.46z"/>
	</g>
</g>
<g id="GRID1" class="st28">
	<g class="st29">
		<line class="st30" x1="0" y1="7.99" x2="143.89" y2="7.99"/>
		<line class="st30" x1="0" y1="23.98" x2="143.89" y2="23.98"/>
		<line class="st30" x1="0" y1="39.97" x2="143.89" y2="39.97"/>
		<line class="st30" x1="0" y1="55.96" x2="143.89" y2="55.96"/>
		<line class="st30" x1="0" y1="71.94" x2="143.89" y2="71.94"/>
		<line class="st30" x1="0" y1="87.93" x2="143.89" y2="87.93"/>
		<line class="st30" x1="0" y1="103.92" x2="143.89" y2="103.92"/>
		<line class="st30" x1="0" y1="119.91" x2="143.89" y2="119.91"/>
		<line class="st30" x1="0" y1="135.89" x2="143.89" y2="135.89"/>
		<line class="st30" x1="135.88" y1="0" x2="135.88" y2="143.89"/>
		<line class="st30" x1="119.91" y1="0" x2="119.91" y2="143.89"/>
		<line class="st30" x1="103.93" y1="0" x2="103.93" y2="143.89"/>
		<line class="st30" x1="87.96" y1="0" x2="87.96" y2="143.89"/>
		<line class="st30" x1="71.99" y1="0" x2="71.99" y2="143.89"/>
		<line class="st30" x1="56.02" y1="0" x2="56.02" y2="143.89"/>
		<line class="st30" x1="40.05" y1="0" x2="40.05" y2="143.89"/>
		<line class="st30" x1="24.08" y1="0" x2="24.08" y2="143.89"/>
		<line class="st30" x1="8.1" y1="0" x2="8.1" y2="143.89"/>
	</g>
</g>
<g id="GRID2" class="st28">
</g>
<g id="Capa_5">
</g>
</svg>
