<?xml version="1.0" encoding="UTF-8"?>
<!-- Generator: Adobe Illustrator 24.1.2, SVG Export Plug-In . SVG Version: 6.00 Build 0)  -->
<svg version="1.1" baseProfile="tiny" id="Capa_1" xmlns="http://www.w3.org/2000/svg" xmlns:xlink="http://www.w3.org/1999/xlink" x="0px" y="0px" viewBox="0 0 310.21 120.26" overflow="visible" xml:space="preserve">
<g>
	<path fill="#000000" d="M136.64,83.07h-11V29.42h11V83.07z"/>
	<path fill="#000000" d="M177.93,67.51h-23.26c0.37,5.18,3.63,7.76,9.78,7.76c3.92,0,7.37-0.93,10.34-2.79v7.94   c-3.3,1.76-7.58,2.65-12.85,2.65c-5.76,0-10.22-1.6-13.4-4.79c-3.18-3.19-4.77-7.64-4.77-13.35c0-5.92,1.72-10.61,5.15-14.07   c3.43-3.46,7.66-5.19,12.67-5.19c5.2,0,9.22,1.54,12.06,4.63c2.84,3.09,4.27,7.28,4.27,12.57V67.51z M167.73,60.75   c0-5.11-2.07-7.66-6.2-7.66c-1.76,0-3.29,0.73-4.58,2.19c-1.29,1.46-2.07,3.28-2.35,5.47H167.73z"/>
	<path fill="#000000" d="M218.43,45.68l-13.26,37.39h-12.53l-12.64-37.39h11.77l6.2,23.04c0.7,2.61,1.1,4.82,1.22,6.65h0.14   c0.16-1.73,0.59-3.87,1.29-6.43l6.34-23.26H218.43z"/>
	<path fill="#000000" d="M254.46,67.51H231.2c0.37,5.18,3.63,7.76,9.78,7.76c3.92,0,7.37-0.93,10.34-2.79v7.94   c-3.3,1.76-7.58,2.65-12.85,2.65c-5.76,0-10.22-1.6-13.4-4.79c-3.18-3.19-4.77-7.64-4.77-13.35c0-5.92,1.72-10.61,5.15-14.07   c3.43-3.46,7.66-5.19,12.67-5.19c5.2,0,9.22,1.54,12.06,4.63c2.84,3.09,4.27,7.28,4.27,12.57V67.51z M244.26,60.75   c0-5.11-2.07-7.66-6.2-7.66c-1.76,0-3.29,0.73-4.58,2.19c-1.29,1.46-2.07,3.28-2.35,5.47H244.26z"/>
	<path fill="#000000" d="M272.01,83.07h-11V29.42h11V83.07z"/>
	<path fill="#000000" d="M278.54,81.26v-8.91c1.81,1.09,3.61,1.9,5.41,2.44c1.8,0.53,3.5,0.8,5.1,0.8c1.95,0,3.49-0.27,4.61-0.8   c1.13-0.53,1.69-1.35,1.69-2.44c0-0.7-0.26-1.28-0.77-1.74c-0.51-0.46-1.17-0.87-1.97-1.22c-0.8-0.35-1.68-0.66-2.63-0.94   c-0.95-0.28-1.87-0.59-2.75-0.94c-1.42-0.53-2.66-1.11-3.74-1.72c-1.08-0.61-1.98-1.33-2.72-2.14c-0.73-0.81-1.29-1.75-1.67-2.82   c-0.38-1.07-0.57-2.33-0.57-3.8c0-2,0.44-3.71,1.31-5.15c0.87-1.44,2.03-2.62,3.48-3.53c1.45-0.92,3.11-1.59,4.98-2.02   c1.87-0.43,3.81-0.64,5.83-0.64c1.58,0,3.18,0.12,4.8,0.37c1.62,0.24,3.23,0.6,4.8,1.06v8.5c-1.39-0.81-2.88-1.42-4.47-1.83   c-1.59-0.41-3.15-0.61-4.68-0.61c-0.72,0-1.4,0.06-2.04,0.19c-0.64,0.13-1.2,0.31-1.69,0.56c-0.49,0.24-0.87,0.56-1.15,0.94   c-0.28,0.38-0.42,0.82-0.42,1.31c0,0.65,0.21,1.21,0.63,1.67c0.42,0.46,0.96,0.86,1.64,1.2c0.67,0.34,1.42,0.64,2.25,0.91   c0.82,0.27,1.64,0.54,2.45,0.82c1.46,0.51,2.79,1.07,3.97,1.67c1.18,0.6,2.2,1.31,3.05,2.12c0.85,0.81,1.5,1.76,1.95,2.86   c0.45,1.09,0.68,2.39,0.68,3.9c0,2.11-0.46,3.92-1.38,5.41c-0.92,1.5-2.14,2.72-3.66,3.66c-1.52,0.94-3.27,1.62-5.26,2.05   c-1.98,0.43-4.04,0.64-6.18,0.64C285.52,83.07,281.88,82.47,278.54,81.26z"/>
	<g>
		<path fill="#000000" d="M99.48,53.28c-1.71,0-3.21,0.72-4.46,2.14c-1.21,1.38-1.98,3.11-2.29,5.15h12.79    C105.46,55.67,103.48,53.28,99.48,53.28z"/>
		<path fill="#000000" d="M92.78,67.89c0.45,4.98,3.62,7.4,9.66,7.4c3.91,0,7.4-0.94,10.35-2.79l0.17-0.11    c0.33-1.49,0.61-3,0.81-4.5H92.78z"/>
		<path fill="#000000" d="M99.9,83.66c-5.87,0-10.5-1.66-13.75-4.92c-3.25-3.26-4.9-7.87-4.9-13.7c0-6.03,1.78-10.89,5.29-14.42    s7.89-5.33,13.01-5.33c5.31,0,9.48,1.6,12.4,4.77c0.65,0.71,1.22,1.49,1.73,2.31C109.8,25.35,87.04,1.17,56.62,3.21    C37.65,4.48,19.9,15.3,10.88,32.17C-3.27,58.63,7.43,93.5,33.85,107.6c22.72,12.13,51.78,6.65,68.27-13.16    c0.7-0.85,1.38-1.71,2.02-2.59c2.23-3.05,4.05-6.23,5.52-9.51C106.89,83.21,103.63,83.66,99.9,83.66z M72.18,78.11    c-2.97,3.69-7,5.56-11.97,5.56c-4.32,0-7.68-1.6-10-4.77v3.89H38.59V28.82h11.62v22.47c2.77-3.97,6.69-5.99,11.65-5.99    c4.71,0,8.39,1.64,10.95,4.89c2.54,3.23,3.83,7.69,3.83,13.27C76.64,69.51,75.14,74.43,72.18,78.11z"/>
		<path fill="#000000" d="M57.56,54.31c-2.15,0-3.96,0.82-5.38,2.42c-1.42,1.62-2.15,3.76-2.15,6.37v3.7c0,2.26,0.66,4.15,1.95,5.63    c1.29,1.47,2.96,2.21,4.97,2.21c2.45,0,4.37-0.96,5.72-2.85c1.36-1.91,2.06-4.68,2.06-8.21c0-2.92-0.63-5.23-1.87-6.86    C61.63,55.13,59.85,54.31,57.56,54.31z"/>
	</g>
</g>
</svg>